<mxfile host="app.diagrams.net" modified="2020-10-10T09:01:39.638Z" agent="5.0 (Macintosh; Intel Mac OS X 10_13_6) AppleWebKit/537.36 (KHTML, like Gecko) Chrome/86.0.4240.75 Safari/537.36" etag="_GuBYUVPxdzhAJuCV3Ih" version="13.7.9" type="github">
  <diagram id="FqbJ1g87iHIE59LpP0e2" name="第 1 页">
    <mxGraphModel dx="1852" dy="1034" grid="1" gridSize="10" guides="1" tooltips="1" connect="1" arrows="1" fold="1" page="1" pageScale="1" pageWidth="827" pageHeight="1169" math="0" shadow="0">
      <root>
        <mxCell id="0" />
        <mxCell id="1" parent="0" />
        <mxCell id="LpuVcXRak1yjNaentHT7-1" value="JDK1.7" style="text;html=1;align=center;verticalAlign=middle;resizable=0;points=[];autosize=1;fontSize=22;fontStyle=1;fontColor=#FF0000;" vertex="1" parent="1">
          <mxGeometry x="80" y="95" width="90" height="30" as="geometry" />
        </mxCell>
        <mxCell id="LpuVcXRak1yjNaentHT7-2" value="JDK1.8" style="text;html=1;align=center;verticalAlign=middle;resizable=0;points=[];autosize=1;fontSize=22;fontStyle=1;fontColor=#FF0000;" vertex="1" parent="1">
          <mxGeometry x="1654" y="90" width="90" height="30" as="geometry" />
        </mxCell>
        <mxCell id="LpuVcXRak1yjNaentHT7-27" value="" style="edgeStyle=orthogonalEdgeStyle;rounded=0;orthogonalLoop=1;jettySize=auto;html=1;fontSize=16;fontColor=#FF0000;" edge="1" parent="1" source="LpuVcXRak1yjNaentHT7-3" target="LpuVcXRak1yjNaentHT7-26">
          <mxGeometry relative="1" as="geometry" />
        </mxCell>
        <mxCell id="LpuVcXRak1yjNaentHT7-3" value="&lt;font style=&quot;font-size: 16px;&quot;&gt;0&lt;/font&gt;" style="rounded=0;whiteSpace=wrap;html=1;fontSize=16;fillColor=#CCFFCC;" vertex="1" parent="1">
          <mxGeometry x="120" y="160" width="40" height="40" as="geometry" />
        </mxCell>
        <mxCell id="LpuVcXRak1yjNaentHT7-4" value="&lt;font style=&quot;font-size: 16px;&quot;&gt;1&lt;/font&gt;" style="rounded=0;whiteSpace=wrap;html=1;fontSize=16;fillColor=#CCFFCC;" vertex="1" parent="1">
          <mxGeometry x="120" y="200" width="40" height="40" as="geometry" />
        </mxCell>
        <mxCell id="LpuVcXRak1yjNaentHT7-5" value="2" style="rounded=0;whiteSpace=wrap;html=1;fontSize=16;fillColor=#CCFFCC;" vertex="1" parent="1">
          <mxGeometry x="120" y="240" width="40" height="40" as="geometry" />
        </mxCell>
        <mxCell id="LpuVcXRak1yjNaentHT7-29" value="" style="edgeStyle=orthogonalEdgeStyle;rounded=0;orthogonalLoop=1;jettySize=auto;html=1;fontSize=15;fontColor=#000000;" edge="1" parent="1" source="LpuVcXRak1yjNaentHT7-6" target="LpuVcXRak1yjNaentHT7-28">
          <mxGeometry relative="1" as="geometry" />
        </mxCell>
        <mxCell id="LpuVcXRak1yjNaentHT7-6" value="3" style="rounded=0;whiteSpace=wrap;html=1;fontSize=16;fillColor=#CCFFCC;" vertex="1" parent="1">
          <mxGeometry x="120" y="280" width="40" height="40" as="geometry" />
        </mxCell>
        <mxCell id="LpuVcXRak1yjNaentHT7-7" value="4" style="rounded=0;whiteSpace=wrap;html=1;fontSize=16;fillColor=#CCFFCC;" vertex="1" parent="1">
          <mxGeometry x="120" y="320" width="40" height="40" as="geometry" />
        </mxCell>
        <mxCell id="LpuVcXRak1yjNaentHT7-8" value="5" style="rounded=0;whiteSpace=wrap;html=1;fontSize=16;fillColor=#CCFFCC;" vertex="1" parent="1">
          <mxGeometry x="120" y="360" width="40" height="40" as="geometry" />
        </mxCell>
        <mxCell id="LpuVcXRak1yjNaentHT7-9" value="6" style="rounded=0;whiteSpace=wrap;html=1;fontSize=16;fillColor=#CCFFCC;" vertex="1" parent="1">
          <mxGeometry x="120" y="400" width="40" height="40" as="geometry" />
        </mxCell>
        <mxCell id="LpuVcXRak1yjNaentHT7-33" value="" style="edgeStyle=orthogonalEdgeStyle;rounded=0;orthogonalLoop=1;jettySize=auto;html=1;fontSize=15;fontColor=#000000;" edge="1" parent="1" source="LpuVcXRak1yjNaentHT7-10" target="LpuVcXRak1yjNaentHT7-32">
          <mxGeometry relative="1" as="geometry" />
        </mxCell>
        <mxCell id="LpuVcXRak1yjNaentHT7-10" value="7" style="rounded=0;whiteSpace=wrap;html=1;fontSize=16;fillColor=#CCFFCC;" vertex="1" parent="1">
          <mxGeometry x="120" y="440" width="40" height="40" as="geometry" />
        </mxCell>
        <mxCell id="LpuVcXRak1yjNaentHT7-11" value="8" style="rounded=0;whiteSpace=wrap;html=1;fontSize=16;fillColor=#CCFFCC;" vertex="1" parent="1">
          <mxGeometry x="120" y="480" width="40" height="40" as="geometry" />
        </mxCell>
        <mxCell id="LpuVcXRak1yjNaentHT7-12" value="9" style="rounded=0;whiteSpace=wrap;html=1;fontSize=16;fillColor=#CCFFCC;" vertex="1" parent="1">
          <mxGeometry x="120" y="520" width="40" height="40" as="geometry" />
        </mxCell>
        <mxCell id="LpuVcXRak1yjNaentHT7-13" value="10" style="rounded=0;whiteSpace=wrap;html=1;fontSize=16;fillColor=#CCFFCC;" vertex="1" parent="1">
          <mxGeometry x="120" y="560" width="40" height="40" as="geometry" />
        </mxCell>
        <mxCell id="LpuVcXRak1yjNaentHT7-41" value="" style="edgeStyle=orthogonalEdgeStyle;rounded=0;orthogonalLoop=1;jettySize=auto;html=1;fontSize=15;fontColor=#000000;" edge="1" parent="1" source="LpuVcXRak1yjNaentHT7-14" target="LpuVcXRak1yjNaentHT7-40">
          <mxGeometry relative="1" as="geometry" />
        </mxCell>
        <mxCell id="LpuVcXRak1yjNaentHT7-14" value="11" style="rounded=0;whiteSpace=wrap;html=1;fontSize=16;fillColor=#CCFFCC;" vertex="1" parent="1">
          <mxGeometry x="120" y="600" width="40" height="40" as="geometry" />
        </mxCell>
        <mxCell id="LpuVcXRak1yjNaentHT7-15" value="12" style="rounded=0;whiteSpace=wrap;html=1;fontSize=16;fillColor=#CCFFCC;" vertex="1" parent="1">
          <mxGeometry x="120" y="640" width="40" height="40" as="geometry" />
        </mxCell>
        <mxCell id="LpuVcXRak1yjNaentHT7-16" value="13" style="rounded=0;whiteSpace=wrap;html=1;fontSize=16;fillColor=#CCFFCC;" vertex="1" parent="1">
          <mxGeometry x="120" y="680" width="40" height="40" as="geometry" />
        </mxCell>
        <mxCell id="LpuVcXRak1yjNaentHT7-17" value="14" style="rounded=0;whiteSpace=wrap;html=1;fontSize=16;fillColor=#CCFFCC;" vertex="1" parent="1">
          <mxGeometry x="120" y="720" width="40" height="40" as="geometry" />
        </mxCell>
        <mxCell id="LpuVcXRak1yjNaentHT7-18" value="15" style="rounded=0;whiteSpace=wrap;html=1;fontSize=16;fillColor=#CCFFCC;" vertex="1" parent="1">
          <mxGeometry x="120" y="760" width="40" height="40" as="geometry" />
        </mxCell>
        <mxCell id="LpuVcXRak1yjNaentHT7-19" value="&lt;font style=&quot;font-size: 11px&quot;&gt;value&lt;/font&gt;" style="rounded=0;whiteSpace=wrap;html=1;fillColor=#fff2cc;fontSize=15;strokeColor=#d6b656;" vertex="1" parent="1">
          <mxGeometry x="280" y="160" width="40" height="40" as="geometry" />
        </mxCell>
        <mxCell id="LpuVcXRak1yjNaentHT7-20" value="null" style="rounded=0;whiteSpace=wrap;html=1;fillColor=#fff2cc;fontSize=15;strokeColor=#d6b656;" vertex="1" parent="1">
          <mxGeometry x="320" y="160" width="40" height="40" as="geometry" />
        </mxCell>
        <mxCell id="LpuVcXRak1yjNaentHT7-26" value="&lt;font style=&quot;font-size: 11px&quot;&gt;null&lt;/font&gt;" style="rounded=0;whiteSpace=wrap;html=1;fontSize=15;fillColor=#fff2cc;strokeColor=#d6b656;" vertex="1" parent="1">
          <mxGeometry x="240" y="160" width="40" height="40" as="geometry" />
        </mxCell>
        <mxCell id="LpuVcXRak1yjNaentHT7-28" value="&lt;font style=&quot;font-size: 12px&quot;&gt;key1&lt;/font&gt;" style="rounded=0;whiteSpace=wrap;html=1;fontSize=16;fillColor=#fff2cc;strokeColor=#d6b656;" vertex="1" parent="1">
          <mxGeometry x="240" y="280" width="40" height="40" as="geometry" />
        </mxCell>
        <mxCell id="LpuVcXRak1yjNaentHT7-30" value="&lt;font style=&quot;font-size: 11px&quot;&gt;value1&lt;/font&gt;" style="rounded=0;whiteSpace=wrap;html=1;fontSize=16;fillColor=#fff2cc;strokeColor=#d6b656;" vertex="1" parent="1">
          <mxGeometry x="280" y="280" width="40" height="40" as="geometry" />
        </mxCell>
        <mxCell id="LpuVcXRak1yjNaentHT7-31" value="&lt;font style=&quot;font-size: 11px&quot;&gt;null&lt;/font&gt;" style="rounded=0;whiteSpace=wrap;html=1;fontSize=16;fillColor=#fff2cc;strokeColor=#d6b656;" vertex="1" parent="1">
          <mxGeometry x="320" y="280" width="40" height="40" as="geometry" />
        </mxCell>
        <mxCell id="LpuVcXRak1yjNaentHT7-32" value="&lt;font style=&quot;font-size: 11px&quot;&gt;key2&lt;/font&gt;" style="rounded=0;whiteSpace=wrap;html=1;fontSize=16;fillColor=#fff2cc;strokeColor=#d6b656;" vertex="1" parent="1">
          <mxGeometry x="240" y="440" width="40" height="40" as="geometry" />
        </mxCell>
        <mxCell id="LpuVcXRak1yjNaentHT7-34" value="&lt;font style=&quot;font-size: 11px&quot;&gt;value2&lt;/font&gt;" style="rounded=0;whiteSpace=wrap;html=1;fontSize=16;fillColor=#fff2cc;strokeColor=#d6b656;" vertex="1" parent="1">
          <mxGeometry x="280" y="440" width="40" height="40" as="geometry" />
        </mxCell>
        <mxCell id="LpuVcXRak1yjNaentHT7-35" value="" style="rounded=0;whiteSpace=wrap;html=1;fontSize=16;fillColor=#fff2cc;strokeColor=#d6b656;" vertex="1" parent="1">
          <mxGeometry x="320" y="440" width="40" height="40" as="geometry" />
        </mxCell>
        <mxCell id="LpuVcXRak1yjNaentHT7-36" value="&lt;font style=&quot;font-size: 11px&quot;&gt;key3&lt;/font&gt;" style="rounded=0;whiteSpace=wrap;html=1;fontSize=16;fillColor=#fff2cc;strokeColor=#d6b656;" vertex="1" parent="1">
          <mxGeometry x="440" y="440" width="40" height="40" as="geometry" />
        </mxCell>
        <mxCell id="LpuVcXRak1yjNaentHT7-38" value="&lt;font style=&quot;font-size: 11px&quot;&gt;value3&lt;/font&gt;" style="rounded=0;whiteSpace=wrap;html=1;fontSize=16;fillColor=#fff2cc;strokeColor=#d6b656;" vertex="1" parent="1">
          <mxGeometry x="480" y="440" width="40" height="40" as="geometry" />
        </mxCell>
        <mxCell id="LpuVcXRak1yjNaentHT7-39" value="&lt;font style=&quot;font-size: 11px&quot;&gt;null&lt;/font&gt;" style="rounded=0;whiteSpace=wrap;html=1;fontSize=16;fillColor=#fff2cc;strokeColor=#d6b656;" vertex="1" parent="1">
          <mxGeometry x="520" y="440" width="40" height="40" as="geometry" />
        </mxCell>
        <mxCell id="LpuVcXRak1yjNaentHT7-40" value="&lt;font style=&quot;font-size: 11px&quot;&gt;key4&lt;/font&gt;" style="rounded=0;whiteSpace=wrap;html=1;fontSize=16;fillColor=#fff2cc;strokeColor=#d6b656;" vertex="1" parent="1">
          <mxGeometry x="240" y="600" width="40" height="40" as="geometry" />
        </mxCell>
        <mxCell id="LpuVcXRak1yjNaentHT7-42" value="&lt;font style=&quot;font-size: 11px&quot;&gt;value4&lt;/font&gt;" style="rounded=0;whiteSpace=wrap;html=1;fontSize=16;fillColor=#fff2cc;strokeColor=#d6b656;" vertex="1" parent="1">
          <mxGeometry x="280" y="600" width="40" height="40" as="geometry" />
        </mxCell>
        <mxCell id="LpuVcXRak1yjNaentHT7-43" value="" style="rounded=0;whiteSpace=wrap;html=1;fontSize=16;fillColor=#fff2cc;strokeColor=#d6b656;" vertex="1" parent="1">
          <mxGeometry x="320" y="600" width="40" height="40" as="geometry" />
        </mxCell>
        <mxCell id="LpuVcXRak1yjNaentHT7-44" value="&lt;font style=&quot;font-size: 11px&quot;&gt;key5&lt;/font&gt;" style="rounded=0;whiteSpace=wrap;html=1;fontSize=16;fillColor=#fff2cc;strokeColor=#d6b656;" vertex="1" parent="1">
          <mxGeometry x="440" y="600" width="40" height="40" as="geometry" />
        </mxCell>
        <mxCell id="LpuVcXRak1yjNaentHT7-46" value="&lt;font style=&quot;font-size: 11px&quot;&gt;value5&lt;/font&gt;" style="rounded=0;whiteSpace=wrap;html=1;fontSize=16;fillColor=#fff2cc;strokeColor=#d6b656;" vertex="1" parent="1">
          <mxGeometry x="480" y="600" width="40" height="40" as="geometry" />
        </mxCell>
        <mxCell id="LpuVcXRak1yjNaentHT7-47" value="&lt;font style=&quot;font-size: 11px&quot;&gt;null&lt;/font&gt;" style="rounded=0;whiteSpace=wrap;html=1;fontSize=16;fillColor=#fff2cc;strokeColor=#d6b656;" vertex="1" parent="1">
          <mxGeometry x="520" y="600" width="40" height="40" as="geometry" />
        </mxCell>
        <mxCell id="LpuVcXRak1yjNaentHT7-48" value="" style="endArrow=classic;html=1;fontSize=15;fontColor=#000000;entryX=0;entryY=0.5;entryDx=0;entryDy=0;fillColor=#fff2cc;" edge="1" parent="1" target="LpuVcXRak1yjNaentHT7-36">
          <mxGeometry width="50" height="50" relative="1" as="geometry">
            <mxPoint x="340" y="460" as="sourcePoint" />
            <mxPoint x="430" y="450" as="targetPoint" />
          </mxGeometry>
        </mxCell>
        <mxCell id="LpuVcXRak1yjNaentHT7-49" value="" style="endArrow=classic;html=1;fontSize=15;fontColor=#000000;entryX=0;entryY=0.5;entryDx=0;entryDy=0;fillColor=#fff2cc;" edge="1" parent="1" target="LpuVcXRak1yjNaentHT7-44">
          <mxGeometry width="50" height="50" relative="1" as="geometry">
            <mxPoint x="340" y="620" as="sourcePoint" />
            <mxPoint x="450" y="550" as="targetPoint" />
          </mxGeometry>
        </mxCell>
        <mxCell id="LpuVcXRak1yjNaentHT7-52" value="" style="shape=curlyBracket;whiteSpace=wrap;html=1;rounded=1;fillColor=none;fontSize=15;fontColor=#000000;direction=north;size=0.5;" vertex="1" parent="1">
          <mxGeometry x="115" y="800" width="55" height="20" as="geometry" />
        </mxCell>
        <mxCell id="LpuVcXRak1yjNaentHT7-54" value="&lt;font color=&quot;#ff3333&quot; style=&quot;font-size: 20px&quot;&gt;table[]&lt;/font&gt;" style="text;html=1;align=center;verticalAlign=middle;resizable=0;points=[];autosize=1;fontSize=15;fontColor=#000000;" vertex="1" parent="1">
          <mxGeometry x="105" y="820" width="70" height="20" as="geometry" />
        </mxCell>
        <mxCell id="LpuVcXRak1yjNaentHT7-55" value="" style="shape=curlyBracket;whiteSpace=wrap;html=1;rounded=1;fillColor=none;fontSize=15;fontColor=#000000;direction=north;" vertex="1" parent="1">
          <mxGeometry x="230" y="200" width="150" height="20" as="geometry" />
        </mxCell>
        <mxCell id="LpuVcXRak1yjNaentHT7-56" value="&lt;font style=&quot;font-size: 18px&quot; color=&quot;#ff3333&quot;&gt;Linked List&lt;/font&gt;" style="text;html=1;align=center;verticalAlign=middle;resizable=0;points=[];autosize=1;fontSize=15;fontColor=#000000;" vertex="1" parent="1">
          <mxGeometry x="255" y="220" width="100" height="20" as="geometry" />
        </mxCell>
        <mxCell id="LpuVcXRak1yjNaentHT7-57" value="" style="shape=curlyBracket;whiteSpace=wrap;html=1;rounded=1;fillColor=none;fontSize=15;fontColor=#000000;direction=north;" vertex="1" parent="1">
          <mxGeometry x="235" y="330" width="130" height="20" as="geometry" />
        </mxCell>
        <mxCell id="LpuVcXRak1yjNaentHT7-58" value="&lt;font style=&quot;font-size: 18px&quot; color=&quot;#ff3333&quot;&gt;Entry&amp;lt;K,V&amp;gt; object&lt;/font&gt;" style="text;html=1;align=center;verticalAlign=middle;resizable=0;points=[];autosize=1;fontSize=15;fontColor=#000000;" vertex="1" parent="1">
          <mxGeometry x="220" y="350" width="160" height="20" as="geometry" />
        </mxCell>
      </root>
    </mxGraphModel>
  </diagram>
</mxfile>
